<svg xmlns="http://www.w3.org/2000/svg" viewBox="0 0 75 75" enable-background="new 0 0 75 75"><style type="text/css">.st0{fill:#CFCECC;} .st1{fill:#CECDC9;} .st2{fill:#2A81BA;} .st3{fill:#EBEBE9;} .st4{fill:#C6C6C2;} .st5{fill:#3C97D3;} .st6{fill:#E64D3C;} .st7{fill:#CD362E;} .st8{fill:#B82626;}</style><path d="M36.4 70c-.5 0-.9 0-1.4 0-.4 0-.7-.4-.7-.8s.4-.7.8-.7c.6 0 1.3 0 1.9 0 .4 0 .7.3.8.7 0 .4-.3.8-.7.8-.3 0-.5 0-.7 0zm4.6-.4c-.3 0-.7-.2-.7-.6-.1-.4.2-.8.6-.9.6-.1 1.3-.3 1.9-.5.4-.1.8.1.9.5.1.4-.1.8-.5.9-.7.2-1.3.4-2 .5-.1.1-.2.1-.2.1zm-9.9-.2c-.1 0-.1 0-.2 0-.7-.2-1.3-.3-2-.6-.4-.1-.6-.6-.5-.9.1-.4.6-.6.9-.5.6.2 1.2.4 1.9.5.4.1.7.5.6.9-.1.4-.4.6-.7.6zm15.6-1.8c-.3 0-.5-.2-.7-.4-.2-.4 0-.8.3-1 .6-.3 1.1-.6 1.7-.9.4-.2.8-.1 1 .3.2.4.1.8-.3 1-.6.4-1.2.7-1.8 1 0 0-.1 0-.2 0zm-21.2-.3c-.1 0-.2 0-.3-.1-.6-.3-1.2-.7-1.8-1-.3-.2-.4-.7-.2-1 .2-.3.7-.5 1-.2.5.3 1.1.7 1.7 1 .4.2.5.6.3 1-.2.2-.5.3-.7.3zm26.1-3c-.2 0-.4-.1-.6-.3-.3-.3-.2-.8.1-1.1.5-.4 1-.9 1.4-1.3.3-.3.8-.3 1.1 0 .3.3.3.8 0 1.1-.5.5-1 1-1.5 1.4-.1.2-.3.2-.5.2zm-31-.4c-.2 0-.4-.1-.5-.2-.5-.5-1-1-1.5-1.5-.3-.3-.3-.8 0-1.1.3-.3.8-.3 1.1 0 .4.5.9.9 1.4 1.4.3.3.3.8 0 1.1-.1.2-.3.3-.5.3zm35-4c-.1 0-.3 0-.4-.1-.3-.2-.4-.7-.2-1 .4-.5.7-1.1 1-1.6.2-.4.7-.5 1-.3.4.2.5.7.3 1-.3.6-.7 1.2-1.1 1.8-.1 0-.3.2-.6.2zm-38.9-.6c-.2 0-.5-.1-.6-.3-.4-.6-.7-1.2-1-1.8-.2-.4-.1-.8.3-1 .4-.2.8-.1 1 .3.3.6.6 1.1 1 1.7.2.3.1.8-.2 1-.2.1-.3.1-.5.1zm41.6-4.8c-.1 0-.2 0-.3 0-.4-.1-.6-.6-.5-1 .2-.6.4-1.2.6-1.8.1-.4.5-.6.9-.5.4.1.6.5.5.9-.2.7-.4 1.3-.6 2 0 .2-.3.4-.6.4zm-44.1-.6c-.3 0-.6-.2-.7-.5-.2-.6-.4-1.3-.6-2-.1-.4.2-.8.6-.9.4-.1.8.2.9.6.1.6.3 1.3.5 1.9.1.4-.1.8-.5.9-.1 0-.2 0-.2 0zm45.4-5.2c-.5 0-.8-.4-.7-.8.1-.6.1-1.3.1-1.9 0-.1 0-.2.1-.3-.1-.1-.1-.2-.1-.3 0-.6-.1-1.3-.1-1.9 0-.4.2-.8.7-.8.4 0 .8.2.8.7.1.7.1 1.4.1 2.1 0 .1 0 .2-.1.4.1.1.1.2.1.4 0 .7 0 1.4-.1 2.1-.1 0-.4.3-.8.3zM13.1 48c-.4 0-.7-.3-.7-.7 0-.5 0-.9 0-1.4 0-.2 0-.5 0-.7 0-.4.4-.7.8-.7s.7.4.7.8c0 .2 0 .4 0 .6 0 .4 0 .9 0 1.3-.1.4-.4.8-.8.8zm.4-5.9s-.1 0-.1 0c-.4-.1-.7-.5-.6-.9.1-.7.3-1.3.5-2 .1-.4.5-.6.9-.5.4.1.6.5.5.9-.2.6-.3 1.2-.5 1.9-.1.3-.4.6-.7.6zm45.2-2c-.3 0-.6-.2-.7-.5-.2-.6-.4-1.2-.6-1.8-.2-.4 0-.8.4-1 .4-.2.8 0 1 .4.3.6.5 1.3.7 2 .1.4-.1.8-.5.9-.1 0-.2 0-.3 0zm-43.3-3.7c-.1 0-.2 0-.3-.1-.4-.2-.5-.6-.3-1 .3-.6.6-1.2 1-1.8.2-.4.7-.5 1-.3.4.2.5.7.3 1-.3.6-.6 1.1-.9 1.7-.3.3-.5.5-.8.5zm40.9-1.8c-.3 0-.5-.1-.6-.4-.3-.6-.7-1.1-1.1-1.6-.2-.3-.2-.8.2-1 .3-.2.8-.2 1 .2.4.5.8 1.1 1.1 1.7.2.4.1.8-.3 1 0 .1-.1.1-.3.1zm-37.6-3.2c-.2 0-.3-.1-.5-.2-.3-.3-.3-.7-.1-1.1.4-.5.9-1 1.4-1.5.3-.3.8-.3 1.1 0 .3.3.3.8 0 1.1-.5.4-.9.9-1.3 1.4-.2.2-.4.3-.6.3zm33.9-1.5c-.2 0-.4-.1-.5-.2-.5-.4-.9-.9-1.4-1.3-.3-.3-.4-.7-.1-1.1.3-.3.7-.4 1.1-.1.5.4 1 .9 1.5 1.4.3.3.3.8 0 1.1-.2.2-.4.2-.6.2zm-29.4-2.5c-.2 0-.5-.1-.6-.3-.2-.3-.1-.8.2-1 .6-.4 1.2-.8 1.7-1.1.4-.2.8-.1 1 .3.2.4.1.8-.3 1-.6.3-1.1.7-1.6 1-.1.1-.3.1-.4.1zm24.6-1c-.1 0-.3 0-.4-.1-.6-.3-1.1-.6-1.7-.9-.4-.2-.5-.6-.4-1 .2-.4.6-.5 1-.4.6.3 1.2.6 1.8.9.4.2.5.7.3 1-.1.3-.3.5-.6.5zm-19.3-1.7c-.3 0-.6-.2-.7-.5-.1-.4.1-.8.5-1 .6-.2 1.3-.4 2-.6.4-.1.8.1.9.5.1.4-.1.8-.5.9-.6.2-1.2.4-1.8.6-.2.1-.3.1-.4.1zm13.8-.6c-.1 0-.1 0-.2 0-.6-.2-1.3-.3-1.9-.4-.4-.1-.7-.5-.6-.9.1-.4.5-.7.9-.6.7.1 1.4.3 2 .4.4.1.6.5.5.9-.1.4-.4.6-.7.6zm-8-.7c-.4 0-.7-.3-.7-.7 0-.4.3-.8.7-.8.7-.1 1.4-.1 2.1-.1.4 0 .8.3.8.7 0 .4-.3.8-.7.8-.8.1-1.5.1-2.2.1.1 0 .1 0 0 0z" class="st0"/><path d="M33.6 50.4h11.3v17.1H33.6z" class="st1"/><path d="M29.3 62.7h20.2v9.9H29.3z" class="st2"/><path d="M19.5 23.5l2.7 17.7 5.3 12.2c.6 1.3 1.8 2.1 3.1 2.3 2.8.2 7.6.5 10.6-.2 3.2-.7 8.2-4 10.7-5.7 1-.7 1.6-1.8 1.6-3 .1-2.3.4-6.2 1.5-7.7 1.7-2.2 4.3-4.1 4.3-4.1s-.4-2.4-2.4-2.6c-2-.2-4.5 1.5-5.8 4.7-1.3 3.2-1.3 3.7-1.3 3.7l-3.5.1s-1.9-4.7-2.3-5.4c-.4-.8-1.8-2.6-1.8-2.6s-4.8-12.7-5.4-14c-.6-1.3-1.6-2.4-1.6-2.4s-4-.8-8.7.3c-4.8.8-7 6.7-7 6.7z" class="st3"/><path d="M48.8 23c.1 0 .1-.1 0-.1 0 0 0 .1 0 .1z" class="st1"/><path d="M38.6 48.1c-.1 0-.1 0-.2 0-.3-.1-.5-.5-.4-.8 2-6.3 8-7.2 8.2-7.2.3 0 .7.2.7.6 0 .4-.2.7-.6.7-.2 0-5.4.8-7.2 6.3 0 .2-.3.4-.5.4zM29.3 45.3c-.3 0-.6-.3-.6-.6 0-.4.3-.7.6-.7.1 0 6.4-.3 11.5-3.3.3-.2.7-.1.9.2.2.3.1.7-.2.9-5.4 3.2-11.9 3.5-12.2 3.5zM41.1 51.4c-.2 0-.5-.1-.6-.4-2-4.4-8.9-5.7-8.9-5.7-.4-.1-.6-.4-.5-.8.1-.4.4-.6.8-.5.3.1 7.7 1.4 9.9 6.5.1.3 0 .7-.3.9-.3 0-.3 0-.4 0zM31.9 35.5c-.3 0-.5-.2-.6-.5l-5.8-17.8c-.1-.3.1-.7.4-.8.3-.1.7.1.8.4l5.8 17.8c.1.3-.1.7-.4.8-.1.1-.1.1-.2.1zM26.8 36.8c-.3 0-.5-.2-.6-.5l-4.6-16.6c-.1-.3.1-.7.5-.8.3-.1.7.1.8.5L27.5 36c.1.3-.1.7-.5.8-.1 0-.1 0-.2 0zM37.6 33.9c-.3 0-.5-.2-.6-.4l-6.3-17c-.1-.3 0-.7.4-.8.3-.1.7 0 .8.4l6.3 17c.1.3 0 .7-.4.8 0 0-.1 0-.2 0zM25.4 37.9c-.2 0-.4-.1-.5-.2-.2-.3-.2-.7.1-.9.1-.1 1.5-1.3 3-1.5.4-.1.7.2.7.5.1.4-.2.7-.5.7-1 .2-2.1.9-2.4 1.2-.1.1-.2.2-.4.2zM30.5 36c-.2 0-.5-.1-.6-.3-.2-.3-.1-.7.3-.9.1 0 1.7-.9 3.3-.8.4 0 .6.3.6.7 0 .4-.4.6-.7.6-1.2-.1-2.6.7-2.6.7-.1 0-.2 0-.3 0zM36 34.4c-.2 0-.5-.1-.6-.4-.2-.3 0-.7.3-.9.1 0 1.8-.8 3.4-.6.4 0 .6.4.6.7 0 .4-.4.6-.7.6-1.2-.2-2.6.5-2.6.5-.2 0-.3.1-.4.1z" class="st4"/><path d="M29.3 62.7h10v9.9h-10z" class="st5"/><path d="M62.7 19v-3.9l-3.5-1.2c-.2-.8-.6-1.6-1-2.4l1.6-3.4L57 5.3l-3.4 1.6c-.7-.4-1.5-.8-2.4-1L50 2.4h-3.9l-1.2 3.5c-.8.2-1.6.6-2.4 1l-3.4-1.6-2.8 2.8 1.6 3.4c-.4.7-.7 1.5-1 2.4l-3.5 1.2V19l3.5 1.3c.2.8.6 1.6 1 2.4L36.3 26l2.8 2.8 3.4-1.6c.7.4 1.5.7 2.4 1l1.2 3.5H50l1.3-3.5c.8-.2 1.6-.6 2.4-1l3.4 1.6 2.8-2.8-1.6-3.4c.4-.7.8-1.5 1-2.4l3.4-1.2zm-14.6 4.9c-1.9 0-3.6-.8-4.8-2-.1-.1-.2-.2-.3-.3-.1-.1-.2-.3-.3-.4-.1-.1-.1-.1-.2-.2-.8-1.1-1.2-2.5-1.2-3.9 0-3.8 3.1-6.9 6.9-6.9 3.8 0 6.9 3.1 6.9 6.9s-3.2 6.8-7 6.8z" class="st6"/><path d="M62.7 19v-3.9l-3.5-1.2c-.2-.8-.6-1.6-1-2.4l1.6-3.4L57 5.3l-3.4 1.6c-.7-.4-1.5-.8-2.4-1L50 2.4h-1.9v7.8c3.7.1 6.7 3.1 6.7 6.9s-3 6.8-6.7 6.9v7.8h1.8l1.3-3.5c.8-.2 1.6-.6 2.4-1l3.4 1.6 2.8-2.8-1.6-3.4c.4-.7.8-1.5 1-2.4l3.5-1.3z" class="st7"/><path d="M50.1 2.4l1.2 3.5c-.5-.2-1.2-.3-1.9-.4l-.8-3.1h1.5zM61 19.7l1.8-.6v-3.9l-1.8-.7s0 .6 0 .7v3.9s0 .6 0 .6zm-9.7 8.5c-.6.2-1.2.3-1.9.5l-1.1 3H50l1.3-3.5zm6.9-5.5c.4-.7.8-1.5 1-2.4l-1.9.6c-.2.7-.4 1.1-.8 1.8l1.5 3.1c.1.2.1.4-.1.6l-2 1.9 1.1.5 2.8-2.8-1.6-3.3zM58 7.8c.2.2.2.4.1.6l-1.5 3.1c.3.6.6 1.2.8 1.9l1.8.5c-.2-.8-.6-1.6-1-2.4l1.6-3.4L57 5.3l-1.1.5 2.1 2z" class="st8"/></svg>