<svg xmlns="http://www.w3.org/2000/svg" viewBox="0 0 75 75" enable-background="new 0 0 75 75"><style type="text/css">.st0{fill:#CECDC9;} .st1{fill:#B3B4AF;} .st2{fill:#EBEBE9;} .st3{fill:#2A81BA;} .st4{fill:#2577A6;} .st5{fill:#3C97D3;} .st6{fill:#B2B2B0;} .st7{fill:#989898;} .st8{fill:#D3D3D3;}</style><path d="M37.5 71.1L6.8 54.2V19.6l30.7 16.9z" class="st0"/><path d="M37.5 71.1l30.7-16.9V19.6L37.5 36.5z" class="st1"/><path d="M6.8 19.6l30.7 16.9 30.7-16.9L37.5 3.9z" class="st2"/><path d="M37.5 26l9.5 5.3V43l-9.5-5.2z" class="st3"/><path d="M37.5 26L28 31.3V43l9.5-5.2z" class="st4"/><path d="M47 43l-9.5-5.2L28 43l9.5 4.9z" class="st5"/><path d="M28 64c-.4 0-.8-.3-.8-.8V44.4L8.3 34c-.4-.2-.5-.7-.3-1 .2-.4.7-.5 1-.3l19.8 10.8v19.7c0 .5-.3.8-.8.8zM16.7 58.3c-.4 0-.8-.3-.8-.8V26.8c0-.4.3-.8.8-.8.4 0 .8.3.8.8v30.7c-.1.5-.4.8-.8.8zM35.3 60.5c-.1 0-.3 0-.4-.1L8.9 46c-.4-.2-.5-.7-.3-1 .2-.4.7-.5 1-.3l26.1 14.4c.4.2.5.7.3 1-.1.3-.4.4-.7.4z" class="st6"/><path d="M47.5 63.7c-.4 0-.8-.3-.8-.8V43.2l19.8-10.8c.4-.2.8-.1 1 .3.2.4.1.8-.3 1l-19 10.4V63c0 .4-.3.7-.7.7zM58.8 58c-.4 0-.8-.3-.8-.8V26.6c0-.4.3-.8.8-.8.4 0 .8.3.8.8v30.7c0 .4-.4.7-.8.7zM40.1 60.3c-.3 0-.5-.1-.7-.4-.2-.4-.1-.8.3-1l26.1-14.4c.4-.2.8-.1 1 .3.2.4.1.8-.3 1l-26 14.4c-.1 0-.2.1-.4.1z" class="st7"/><path d="M36.6 26.3c-.1 0-.3 0-.4-.1L18 15.9c-.4-.2-.5-.7-.3-1 .2-.4.7-.5 1-.3L37 24.9c.4.2.5.7.3 1-.2.3-.4.4-.7.4zM56.3 24.6c-.1 0-.3 0-.4-.1L30.1 9.9c-.4-.2-.5-.7-.3-1 .2-.4.7-.5 1-.3l25.8 14.6c.4.2.5.7.3 1-.1.3-.3.4-.6.4zM38.2 26.3c-.3 0-.5-.1-.7-.4-.2-.4-.1-.8.3-1l18.3-10.3c.4-.2.8-.1 1 .3.2.4.1.8-.3 1L38.6 26.2c-.1.1-.3.1-.4.1zM18.5 24.6c-.3 0-.5-.1-.7-.4-.2-.4-.1-.8.3-1L44 8.6c.4-.2.8-.1 1 .3.2.4.1.8-.3 1L18.9 24.5c-.1.1-.3.1-.4.1z" class="st8"/></svg>