<svg xmlns="http://www.w3.org/2000/svg" viewBox="0 0 75 75" enable-background="new 0 0 75 75"><style type="text/css">.st0{fill:#B0B1AA;} .st1{fill:#CFCECC;} .st2{fill:#C6C6C1;} .st3{fill:#2A81BA;} .st4{fill:#EBEBE9;} .st5{fill:#3C97D3;} .st6{fill:#717168;} .st7{fill:#E64D3C;}</style><path d="M5.4 46.9c-.1 0-.3 0-.4-.1-.2-.2-.2-.5 0-.7L45.9 5.2c.2-.2.5-.2.7 0 .2.2.2.5 0 .7L5.7 46.7c-.1.1-.2.2-.3.2z" class="st0"/><ellipse cx="5.4" cy="46.4" transform="matrix(.707 -.707 .707 .707 -31.225 17.402)" class="st0" rx="1.1" ry="1.1"/><ellipse cx="46.5" cy="5.3" transform="matrix(.707 -.707 .707 .707 9.906 34.438)" class="st0" rx="1.1" ry="1.1"/><path d="M45.9 65.3c-.4 0-.7-.3-.7-.7 0-.4.3-.8.7-.8.7 0 1.3-.1 2-.2.4-.1.8.2.9.6.1.4-.2.8-.6.9-.8.1-1.5.1-2.3.2zm-4.1-.2s-.1 0-.1 0c-.7-.1-1.4-.3-2.1-.4-.4-.1-.6-.5-.5-.9.1-.4.5-.6.9-.5.6.2 1.3.3 1.9.4.4.1.7.4.6.9 0 .2-.3.5-.7.5zM51.9 64c-.3 0-.6-.2-.7-.5-.1-.4 0-.8.4-1 .6-.2 1.2-.5 1.8-.8.4-.2.8 0 1 .3.2.4 0 .8-.3 1-.6.3-1.3.6-1.9.9-.1.1-.2.1-.3.1zM36 63.2c-.1 0-.2 0-.3-.1-.6-.3-1.2-.7-1.8-1.1-.3-.2-.4-.7-.2-1 .2-.3.7-.4 1-.2.5.4 1.1.7 1.7 1 .4.2.5.6.3 1-.2.2-.4.4-.7.4zm21.2-2.3c-.2 0-.4-.1-.6-.3-.3-.3-.2-.8.1-1.1.5-.4 1-.9 1.5-1.3.3-.3.8-.3 1.1 0 .3.3.3.8 0 1.1-.5.5-1 1-1.6 1.4-.2.2-.3.2-.5.2zM31 59.6c-.2 0-.4-.1-.5-.2-.5-.5-1-1-1.4-1.6-.3-.3-.2-.8.1-1.1.3-.3.8-.2 1.1.1.4.5.8 1 1.3 1.4.3.3.3.8 0 1.1-.2.2-.4.3-.6.3zm30.3-3.2c-.1 0-.3 0-.4-.1-.3-.2-.4-.7-.2-1 .4-.5.7-1.1 1-1.7.2-.4.6-.5 1-.3s.5.6.3 1c-.3.6-.7 1.3-1.1 1.8-.1.2-.4.3-.6.3zm-33.9-1.7c-.3 0-.5-.1-.7-.4-.3-.6-.6-1.3-.9-1.9-.1-.4 0-.8.4-1 .4-.2.8 0 1 .4.2.6.5 1.2.8 1.8.2.4 0 .8-.3 1 0 0-.1.1-.3.1zm36.4-3.9c-.1 0-.1 0-.2 0-.4-.1-.6-.5-.5-.9.2-.6.3-1.3.4-1.9.1-.4.5-.7.9-.6.4.1.7.4.6.9-.1.7-.3 1.4-.4 2.1-.2.2-.5.4-.8.4zm-38.3-2c-.4 0-.7-.3-.7-.6-.1-.7-.2-1.4-.2-2.1 0-.4.3-.8.7-.8.4 0 .8.3.8.7 0 .7.1 1.3.2 2 .1.4-.2.8-.6.9-.1-.1-.1-.1-.2-.1zm38.9-4.1c-.4 0-.7-.3-.7-.7 0-.7-.1-1.3-.2-2-.1-.4.2-.8.6-.9.4-.1.8.2.9.6.1.7.2 1.4.2 2.1 0 .5-.3.9-.8.9zm-38.9-2s-.1 0-.1 0c-.4-.1-.7-.4-.6-.9.1-.7.3-1.4.4-2.1.1-.4.5-.6.9-.5.4.1.6.5.5.9-.2.6-.3 1.3-.4 1.9 0 .5-.3.7-.7.7zm37.6-4c-.3 0-.6-.2-.7-.5-.2-.6-.5-1.2-.8-1.8-.2-.4 0-.8.3-1 .4-.2.8 0 1 .3.3.6.6 1.3.9 1.9.1.4 0 .8-.4 1-.1.1-.2.1-.3.1zm-35.7-1.8c-.1 0-.2 0-.3-.1-.4-.2-.5-.6-.3-1 .3-.6.7-1.3 1.1-1.8.2-.3.7-.4 1-.2.3.2.4.7.2 1-.4.5-.7 1.1-1 1.7-.2.3-.4.4-.7.4zm32.7-3.5c-.2 0-.4-.1-.6-.3-.4-.5-.9-1-1.3-1.5-.3-.3-.3-.8 0-1.1.3-.3.7-.3 1 0 .5.5 1 1 1.4 1.6.3.3.2.8-.1 1.1-.1.2-.3.2-.4.2zM31 31.9c-.2 0-.4-.1-.5-.2-.3-.3-.3-.8 0-1 .5-.5 1-1 1.5-1.4.3-.3.8-.2 1.1.1.3.3.2.8-.1 1.1-.5.4-1 .8-1.4 1.3-.2 0-.4.1-.6.1zm24.5-2.6c-.1 0-.3 0-.4-.1-.5-.4-1.1-.7-1.7-1-.4-.2-.5-.6-.3-1s.6-.5 1-.3c.6.3 1.3.7 1.8 1.1.3.2.4.7.2 1-.1.2-.4.3-.6.3zm-19.6-1c-.3 0-.5-.1-.7-.4-.2-.4 0-.8.3-1 .6-.3 1.3-.6 1.9-.9.4-.1.8 0 1 .4.1.4 0 .8-.4 1-.6.2-1.2.5-1.8.8 0 .1-.1.1-.3.1zm14-1.5c-.1 0-.1 0-.2 0-.6-.2-1.3-.3-1.9-.4-.4-.1-.7-.4-.6-.9.1-.4.4-.7.9-.6.7.1 1.4.3 2.1.4.4.1.6.5.5.9-.2.4-.5.6-.8.6zm-8.1-.4c-.4 0-.7-.3-.7-.6-.1-.4.2-.8.6-.9.7-.1 1.4-.2 2.1-.2.4 0 .8.3.8.7 0 .4-.3.8-.7.8-.7 0-1.3.1-2 .2-.1 0-.1 0-.1 0z" class="st1"/><path d="M48.2 55.3l3.5-3.5-18.3-18.3s-1.7 1.7-2.4 2.4c7.8 7.8 9 17.4 9 17.4l8.2 2z" class="st2"/><path d="M59.2 59.3l-5.1 5.1-5.9-9.1 3.5-3.5z" class="st3"/><path d="M54.16 64.4l5.02-5.02 5.23 5.23-5 5.03z" class="st2"/><path d="M55.1 48.3l-3.5 3.5-18.2-18.3s1.7-1.7 2.4-2.4c7.8 7.8 17.4 9 17.4 9l1.9 8.2z" class="st4"/><path d="M59.2 59.3l5-5-9.1-6-3.4 3.5z" class="st5"/><path d="M69.44 59.54l-5.02 5.02-5.23-5.23 5-5.02z" class="st4"/><ellipse cx="46.5" cy="46.6" transform="matrix(.707 -.707 .707 .707 -19.355 46.541)" class="st6" rx="2.7" ry="2.7"/><path d="M33.07 33.96l.78-.78L45.87 45.2l-.78.78z" class="st6"/><path d="M26.1 68.1c-.1 0-.3 0-.4-.1-11.6-11.6-11.6-30.5 0-42.1 11.6-11.6 30.5-11.6 42.1 0 .2.2.2.5 0 .7-.2.2-.5.2-.7 0-11.2-11.2-29.5-11.2-40.7 0-11.2 11.2-11.2 29.5 0 40.7.2.2.2.5 0 .7 0 .1-.2.1-.3.1z" class="st0"/><path d="M22.65 25.94l3.2-3.2 3.17 3.2-3.18 3.18zM22.96 67.63l3.18-3.18 3.2 3.18-3.2 3.18zM64.36 26.23l3.18-3.2 3.18 3.2-3.18 3.18z" class="st7"/><path d="M33.5 13.6c-.1 0-.2 0-.3-.1-.3-.1-.6-.3-.9-.4-.4-.2-.6-.6-.4-1 .2-.4.6-.6 1-.4.3.1.6.3 1 .4.4.2.5.6.3 1s-.5.5-.7.5zM11.2 29.3c-.4 0-.7-.3-.7-.7-.1-.6-.1-1.3-.1-1.9v-.3c0-.4.3-.7.8-.7.4 0 .7.3.7.8v.3c0 .6 0 1.2.1 1.7 0 .3-.3.7-.8.8.1 0 .1 0 0 0zm.6-6.4c-.1 0-.1 0-.2 0-.4-.1-.6-.5-.5-.9.2-.7.5-1.4.8-2.1.2-.4.6-.5 1-.4.4.2.5.6.4 1-.3.6-.5 1.3-.7 1.9-.2.3-.5.5-.8.5zm3.1-5.6c-.2 0-.4-.1-.5-.2-.3-.3-.3-.7-.1-1.1.2-.3.5-.5.8-.8.3-.3.5-.5.8-.8.3-.3.8-.2 1.1.1.3.3.2.8-.1 1.1-.3.2-.5.5-.8.7-.2.2-.5.5-.7.7-.1.2-.3.3-.5.3zm5.1-3.8c-.3 0-.6-.2-.7-.4-.2-.4 0-.8.4-1 .7-.3 1.4-.6 2.1-.8.4-.1.8.1.9.5.1.4-.1.8-.5.9-.6.2-1.3.4-1.9.7-.1 0-.2.1-.3.1zm8.4-1.4c-.7-.1-1.2-.1-1.8-.1h-.3c-.5 0-.8-.3-.8-.7 0-.4.3-.8.7-.8h.3c.6 0 1.3 0 1.9.1.4 0 .7.4.7.8s-.3.7-.7.7zM12.7 34.3c-.3 0-.5-.2-.7-.4-.2-.3-.3-.6-.4-1-.2-.4 0-.8.4-1 .4-.2.8 0 1 .4.1.3.3.6.4.9.2.4 0 .8-.3 1-.1.1-.2.1-.4.1z" class="st1"/></svg>