<svg xmlns="http://www.w3.org/2000/svg" viewBox="0 0 75 75" enable-background="new 0 0 75 75"><style type="text/css">.st0{fill:#BFBFBA;} .st1{fill:#CECDC9;} .st2{fill:#EBEBE9;} .st3{fill:#A1A19A;} .st4{fill:#B0B1AA;} .st5{opacity:0.3;fill:#F3F4F2;} .st6{fill:#717168;} .st7{fill:#E64D3C;} .st8{fill:#CD362E;} .st9{fill:#B82626;} .st10{fill:#DDDDDB;} .st11{fill:#3C97D3;} .st12{fill:#2A81BA;} .st13{fill:#97968E;} .st14{fill:#FFFFFF;}</style><path d="M24.3 39.9H17c-8.4 0-13.9 6.4-14.1 15v15H38v-16c0-7.4-5.2-14-13.7-14z" class="st0"/><path d="M20.5 46.8c6.6.1 7.7-6.4 7.7-6.4s-3.2-1.6-8.3-1.6c-3.8 0-7.2 1.7-7.2 1.7s1.4 6.2 7.8 6.3zM16.4 28.7h8.2v12.4h-8.2z" class="st1"/><path d="M30.6 26.4c0 5.8-4.2 10.5-9.4 10.5h-1.5c-5.2 0-9.4-4.7-9.4-10.5v-9.6c0-5.8 4.2-10.5 9.4-10.5h1.5c5.2 0 9.4 4.7 9.4 10.5v9.6z" class="st2"/><path d="M10.5 25.9s-2.8-3.3-3.1-6.6C6.5 10.1 12.3 6.2 19 6.2c4.4 0 8.2 2.1 10.4 5.5-4.5 5.6-9 2.2-17.3 3.5-1.1.2-1.6 5.5-1.6 10.7z" class="st3"/><path d="M30.4 28.1s4.1-5.4 3.1-12.5C32.7 9.7 26.7 4.7 18.8 5 14.3 5.2 10 8.2 8 13c4.8 6.6 8.9 9.3 18.8 9.5 1.4 0 4.3 2.8 3.6 5.6z" class="st4"/><path d="M22.3 19.7c-.1 0-.2 0-.3 0-3.1-.9-5.4-2-7-3.4-.5-.4-.5-1.1-.1-1.6s1.1-.5 1.6-.1c1.4 1.2 3.4 2.2 6.1 2.9.6.2.9.8.8 1.4-.2.5-.7.8-1.1.8zM26.1 20.5s-.1 0 0 0c-.6 0-.8 0-1.2-.1-.6-.1-1-.7-.9-1.3.1-.6.7-1 1.3-.9.4.1.4.1.9.1.6 0 1.1.5 1.1 1.2-.1.5-.6 1-1.2 1z" class="st5"/><path d="M20.5 46.9c.1 0 .2 0 .3 0 5.8 0 7.9-4 8.6-6.1-.5-.2-.9-.4-1.4-.5-.6 1.8-2.4 5-7.2 5-.1 0-.2 0-.2 0-4.5 0-6.6-3-7.4-5-.5.1-.9.3-1.4.6.8 2.1 3.1 5.9 8.7 6zM20.5 50.4c.1 0 .2 0 .3 0 8.8 0 10.5-7.7 10.7-8.6-.2-.1-.9-.5-1.1-.6l-.6-.2c-.1.3-1 7.5-9 7.5-.1 0-.2 0-.3 0-6.8 0-8.9-5.8-9.4-7.4-.6.3-1.1.5-1.6.9.4 1.4 2.8 8.3 11 8.4z" class="st3"/><path d="M22.4 23.3h-3.8c-.4 0-.8-.4-.8-.8s.4-.8.8-.8h3.8c.4 0 .8.4.8.8s-.4.8-.8.8zM30.5 23.3h-2.8c-.4 0-.8-.4-.8-.8s.4-.8.8-.8h2.8c.4 0 .8.4.8.8s-.3.8-.8.8zM13.2 23.3h-2.8c-.4 0-.8-.4-.8-.8s.4-.8.8-.8h2.8c.4 0 .8.4.8.8s-.3.8-.8.8zM18.6 27h-5.4c-.4 0-.8-.4-.8-.8v-4.3c0-.4.4-.8.8-.8h5.4c.4 0 .8.4.8.8v4.3c0 .5-.4.8-.8.8zM14 25.4h3.8v-2.7H14v2.7zM27.7 27h-5.4c-.4 0-.8-.4-.8-.8v-4.3c0-.4.4-.8.8-.8h5.4c.4 0 .8.4.8.8v4.3c0 .5-.3.8-.8.8zm-4.5-1.6H27v-2.7h-3.8v2.7z" class="st6"/><path d="M9 50h1.9v20H9zM30 50h1.9v20H30z" class="st3"/><path id="gear-5-icon_2_" d="M72 40.1v-4.6L67.9 34c-.3-1-.7-1.9-1.2-2.8l1.9-4-3.3-3.3-4 1.9c-.9-.5-1.8-.9-2.8-1.2L57 20.5h-4.6L51 24.6c-1 .3-1.9.7-2.8 1.2l-4-1.9-3.2 3.2 1.9 4c-.5.9-.9 1.8-1.2 2.8l-4.1 1.5V40l4.1 1.5c.3 1 .7 1.9 1.2 2.8L41 48.2l3.3 3.3 4-1.9c.9.5 1.8.9 2.8 1.2l1.5 4.1h4.6l1.5-4.1c1-.3 1.9-.7 2.8-1.2l4 1.9 3.3-3.3-1.9-4c.5-.9.9-1.8 1.2-2.8l3.9-1.3zm-17.5 5c-4.9 0-7.4-2.2-7.4-7.1 0-4.9 2.7-7.7 7.5-7.7 4.9 0 7.4 2.8 7.4 7.7.1 4.9-2.6 7.1-7.5 7.1z" class="st7"/><path d="M72 40.1v-4.6L67.9 34c-.3-1-.7-1.9-1.2-2.8l1.9-4-3.3-3.3-4 1.9c-.9-.5-1.8-.9-2.8-1.2L57 20.5h-2.2v9.9c4.7.1 7.1 2.9 7.1 7.7 0 4.7-2.5 7-7.1 7.1V55h2.1l1.5-4.1c1-.3 1.9-.7 2.8-1.2l4 1.9 3.3-3.3-1.9-4c.5-.9.9-1.8 1.2-2.8l4.2-1.4z" class="st8"/><path d="M57.1 20.5l1.5 4.1c-.6-.2-1.4-.4-2.2-.5l-1-3.7 1.7.1zM70 40.8l2.1-.7v-4.6l-2.1-.8s0 .7 0 .8v4.6s0 .7 0 .7zm-11.4 10c-.7.3-1.4.4-2.2.5L55 55h2.1l1.5-4.2zm8.1-6.5c.5-.9.9-1.8 1.2-2.8l-2.3.8c-.3.8-.5 1.3-.9 2.1l1.7 3.7c.1.2.1.5-.1.7L64 50.9l1.3.6 3.3-3.3-1.9-3.9zm-.3-17.5c.2.2.2.5.1.7l-1.8 3.7c.4.8.7 1.4 1 2.2l2.3.6c-.3-1-.7-1.9-1.2-2.8l1.9-4-3.3-3.3-1.3.6 2.3 2.3z" class="st9"/><path d="M66.2 66.9c0 .9-1.4 1.6-2.3 1.6H26.2c-.9 0-2.1-.7-2.1-1.6V43.2c0-.9.7-1.6 1.6-1.6h38.9c.9 0 1.6.7 1.6 1.6v23.7z" class="st2"/><path d="M47.4 44.2h-4.1c-.3 0-.6-.3-.6-.6s.3-.6.6-.6h4.1c.3 0 .6.3.6.6s-.3.6-.6.6z" class="st6"/><path d="M20.5 65.5v1.2c0 1.7 1.5 3.3 3.5 3.3h42.2c2 0 3.7-1.5 3.7-3.3v-1.2H20.5z" class="st10"/><path d="M27.2 45.7h36v19.9h-36z" class="st11"/><path d="M45.4 45.7h17.8v19.9H45.4z" class="st12"/><path d="M39.7 67h10.7c.8 0 1.4-.6 1.4-1.4H38.3c0 .7.6 1.4 1.4 1.4z" class="st13"/><path d="M34.2 56.7v-2.4l6.7-3v2.5l-4.4 1.7 4.4 1.7v2.5l-6.7-3zM46.7 48.8h2.1l-5.4 13.5h-2.1l5.4-13.5zM49.5 57.2l4.4-1.7-4.4-1.7v-2.5l6.7 3v2.4l-6.7 3v-2.5z" class="st14"/></svg>