<svg xmlns="http://www.w3.org/2000/svg" viewBox="0 0 75 75" enable-background="new 0 0 75 75"><style type="text/css">.st0{fill:#EBEBE9;} .st1{fill:#3C97D3;} .st2{fill:#EDF0F1;} .st3{fill:#C6C6C1;} .st4{fill:#A5A39D;} .st5{fill:#FFFFFF;} .st6{fill:#DDDDDB;} .st7{fill:#E64D3C;} .st8{fill:#CFCECC;} .st9{fill:#2A81BA;}</style><path d="M17.9 69.05V5.65h45.7v63.4z" class="st0"/><path d="M9.7 15.7h62v43.4h-62z" class="st1"/><path d="M67.55 19.9v35h-53.6v-35z" class="st2"/><path d="M67.6 34.1l-2.7-3-12.6 14.3 12.6.6 2.7-.1z" class="st3"/><path d="M51.5 27.5L35.9 45.3l15.6.7 15.6-.7z" class="st4"/><path d="M27.1 42.8c3.4 0 3.4 2.1 6.7 2.1 3.4 0 3.4-2.1 6.7-2.1 3.4 0 3.4 2.1 6.7 2.1 3.4 0 3.4-2.1 6.7-2.1 3.4 0 3.4 2.1 6.8 2.1s3.4-2.1 6.8-2.1v12.1H27.1V42.8z" class="st3"/><path d="M51.5 27.5l-6.2 7.1 4.2-1.7 2.7 2.9 2.3-2 2.7.1z" class="st5"/><path d="M54.1 48.6c-3.4 0-3.4 2.1-6.7 2.1-3.4 0-3.4-2.1-6.7-2.1-3.4 0-3.4 2.1-6.7 2.1-3.4 0-3.4-2.1-6.7-2.1v6.3h40.5v-6.3c-3.4 0-3.4 2.1-6.8 2.1-3.5 0-3.5-2.1-6.9-2.1z" class="st6"/><circle cx="18.2" cy="49.8" r="15" class="st7"/><path d="M12.2 52.4L4.5 64.9l4.4.3 2.7 4.2s8.5-13.6 7.7-12.4l-7.1-4.6zM24.2 52.2l7.7 12.4-4.4.3-2.7 4.2s-8.5-13.6-7.7-12.4l7.1-4.5z" class="st8"/><circle cx="18.2" cy="49.8" r="11.9" class="st5"/><path d="M18.2 41.6l2.4 4.8 5.4.8-3.9 3.8.9 5.4-4.8-2.5-4.8 2.5.9-5.4-3.9-3.8 5.4-.8z" class="st1"/><path d="M23 56.4l-.9-5.4 3.9-3.8-5.4-.8-2.4-4.8v12.3z" class="st9"/><circle cx="34.3" cy="28.9" r="3.6" class="st5"/><path d="M34.3 24.6c-.3 0-.6-.3-.6-.6v-.6c0-.3.3-.6.6-.6s.6.3.6.6v.6c0 .4-.3.6-.6.6zM34.3 34.8c-.3 0-.6-.3-.6-.6v-.6c0-.3.3-.6.6-.6s.6.3.6.6v.6c0 .4-.3.6-.6.6zM38.5 28.9c0-.3.3-.6.6-.6h.6c.3 0 .6.3.6.6s-.3.6-.6.6h-.6c-.3-.1-.6-.3-.6-.6zM28.3 28.9c0-.3.3-.6.6-.6h.6c.3 0 .6.3.6.6s-.3.6-.6.6h-.6c-.3-.1-.6-.3-.6-.6zM37.3 25.9c-.2-.2-.2-.6 0-.8l.4-.4c.2-.2.6-.2.8 0 .2.2.2.6 0 .8l-.4.4c-.2.2-.6.2-.8 0zM30.1 33.1c-.2-.2-.2-.6 0-.8l.4-.4c.2-.2.6-.2.8 0 .2.2.2.6 0 .8l-.4.4c-.3.2-.6.2-.8 0zM37.3 31.8c.2-.2.6-.2.8 0l.4.4c.2.2.2.6 0 .8-.2.2-.6.2-.8 0l-.4-.4c-.3-.2-.3-.5 0-.8zM30.1 24.6c.2-.2.6-.2.8 0l.4.4c.2.2.2.6 0 .8-.2.2-.6.2-.8 0l-.4-.4c-.3-.2-.3-.5 0-.8zM18.2 31.6c0-.8-.7-1.5-1.5-1.5H14V33h2.8c.8.1 1.4-.6 1.4-1.4zM14 28.1h7.9c1.1 0 2-.9 2-2s-.9-2-2-2H14v4zM67.6 22.9h-12c-1 0-1.8.8-1.8 1.8s.8 1.8 1.8 1.8h12v-3.6z" class="st5"/></svg>