<svg xmlns="http://www.w3.org/2000/svg" viewBox="0 0 75 75" enable-background="new 0 0 75 75"><style type="text/css">.st0{fill:#EBEBE9;} .st1{fill:#CECDC9;} .st2{fill:#3C97D3;} .st3{fill:#FFFFFF;} .st4{fill:#E64D3C;} .st5{fill:#717168;}</style><path d="M15.2 68.4V6.6h44.6v61.8z" class="st0"/><path d="M3.9 15.2h67.2v44.6H3.9z" class="st1"/><path d="M66.1 20.2v34.6H8.9V20.2z" class="st0"/><path d="M3.9 41.1H28v18.7H3.9z" class="st2"/><path d="M25.85 43.22v14.5H5.95v-14.5z" class="st3"/><path d="M30 41.8c-.3 0-.7-.2-.9-.5-.3-.5-.1-1.1.4-1.4l31.2-17.8c.5-.3 1.1-.1 1.4.4.3.5.1 1.1-.4 1.4L30.5 41.7c-.2.1-.3.1-.5.1zM33.4 42.3l-2.5-2-.4-3.2-4.7 6.1zM66.1 20.2L60.8 27l.1-3.8-3.3-1.9z" class="st4"/><path d="M6.6 22.9c-.3 0-.6-.3-.6-.6v-4.5c0-.3.3-.6.6-.6h6.6c.3 0 .6.3.6.6s-.3.6-.6.6h-6v3.8c0 .4-.3.7-.6.7zM68.6 58H62c-.3 0-.6-.3-.6-.6s.3-.6.6-.6h6V53c0-.3.3-.6.6-.6s.6.3.6.6v4.5c.1.2-.2.5-.6.5zM68.6 22.9c-.3 0-.6-.3-.6-.6v-3.8h-5.9c-.3 0-.6-.3-.6-.6s.3-.6.6-.6h6.6c.3 0 .6.3.6.6v4.5c0 .2-.3.5-.7.5z" class="st5"/></svg>