<svg xmlns="http://www.w3.org/2000/svg" viewBox="0 0 75 75" enable-background="new 0 0 75 75"><style type="text/css">.st0{fill:#DDDDD7;} .st1{fill:#3C97D3;} .st2{fill:#2A81BA;} .st3{fill:#EBEBE9;} .st4{fill:#CECDC9;} .st5{fill:#E64D3C;} .st6{fill:#C1362D;} .st7{fill:#F3F4F2;} .st8{fill:#A1A19A;}</style><path d="M12.8 47.3h1.6V58c0 .4-.4.8-.8.8H8.8v-1.6h4v-9.9zM60.8 46.9h1.6v9.9h4v1.6h-4.8c-.4 0-.8-.4-.8-.8V46.9zM25 44.3h1.6V55H25zM25.8 54.5c1.5 0 2.8 1.3 2.8 2.8 0 1.5-1.3 2.8-2.8 2.8-1.5 0-2.8-1.3-2.8-2.8 0-1.6 1.2-2.8 2.8-2.8zm0 4c.7 0 1.2-.5 1.2-1.2s-.5-1.2-1.2-1.2-1.2.5-1.2 1.2c0 .6.5 1.2 1.2 1.2zM48.5 45.9h1.6v10.7h-1.6zM49.3 56c1.5 0 2.8 1.3 2.8 2.8 0 1.5-1.3 2.8-2.8 2.8-1.5 0-2.8-1.3-2.8-2.8 0-1.5 1.3-2.8 2.8-2.8zm0 4c.7 0 1.2-.5 1.2-1.2s-.5-1.2-1.2-1.2-1.2.5-1.2 1.2.6 1.2 1.2 1.2zM7.3 55.2c1.5 0 2.8 1.3 2.8 2.8s-1.3 2.8-2.8 2.8c-1.5 0-2.8-1.3-2.8-2.8s1.2-2.8 2.8-2.8zm0 4c.7 0 1.2-.5 1.2-1.2s-.5-1.2-1.2-1.2S6 57.4 6 58c0 .7.6 1.2 1.3 1.2zM67.7 55c1.5 0 2.8 1.3 2.8 2.8 0 1.5-1.3 2.8-2.8 2.8-1.5 0-2.8-1.3-2.8-2.8 0-1.5 1.3-2.8 2.8-2.8zm0 4c.7 0 1.2-.5 1.2-1.2s-.5-1.2-1.2-1.2-1.2.5-1.2 1.2.6 1.2 1.2 1.2zM35.6 43.1h1.6v18h-1.6zM36.4 59.8c1.5 0 2.8 1.3 2.8 2.8 0 1.5-1.3 2.8-2.8 2.8-1.5 0-2.8-1.3-2.8-2.8 0-1.5 1.3-2.8 2.8-2.8zm0 4.1c.7 0 1.2-.5 1.2-1.2s-.5-1.2-1.2-1.2-1.2.5-1.2 1.2c0 .6.6 1.2 1.2 1.2z" class="st0"/><path d="M37.5 14.5c-18.8 0-34.1 15.3-34.1 34.1h68.2c0-18.8-15.3-34.1-34.1-34.1z" class="st1"/><path d="M71.6 48.7c0-18.8-15.3-34.1-34.1-34.1v34.1h34.1z" class="st2"/><path d="M37.5 20.5c-15.6 0-28.2 12.6-28.2 28.2h56.3c.1-15.6-12.5-28.2-28.1-28.2z" class="st3"/><path d="M55.5 27l-18 21.7h28.2c0-8.8-4-16.5-10.2-21.7z" class="st4"/><path d="M39.3 51.5l-3.2-5.7 23-8.6z" class="st5"/><circle cx="37.5" cy="48.7" r="7.2" class="st5"/><path d="M44.7 48.7c0-4-3.2-7.2-7.2-7.2v14.3c4 0 7.2-3.2 7.2-7.1z" class="st6"/><circle cx="37.5" cy="48.7" r="3.6" class="st7"/><path d="M37.5 29.3c-.8 0-1.4-.6-1.4-1.4V26c0-.8.6-1.4 1.4-1.4.8 0 1.4.6 1.4 1.4v1.9c0 .8-.6 1.4-1.4 1.4zM18.3 45.5c0 .8-.6 1.4-1.4 1.4H15c-.8 0-1.4-.6-1.4-1.4 0-.8.6-1.4 1.4-1.4h1.9c.8.1 1.4.7 1.4 1.4zM61.4 45.5c0 .8-.6 1.4-1.4 1.4h-1.9c-.8 0-1.4-.6-1.4-1.4 0-.8.6-1.4 1.4-1.4H60c.8.1 1.4.7 1.4 1.4zM23.8 35c-.5.5-1.4.5-2 0l-1.3-1.3c-.5-.5-.5-1.4 0-2 .5-.5 1.4-.5 2 0l1.3 1.3c.5.6.5 1.5 0 2zM51.2 34.9c-.5-.5-.5-1.4 0-2l1.3-1.3c.5-.5 1.4-.5 2 0 .5.5.5 1.4 0 2l-1.3 1.3c-.6.5-1.5.5-2 0z" class="st8"/></svg>