<svg xmlns="http://www.w3.org/2000/svg" viewBox="0 0 75 75" enable-background="new 0 0 75 75"><style type="text/css">.st0{fill:#DDDDD7;} .st1{fill:#CFCEC4;} .st2{fill:#717168;} .st3{fill:#B0B1AA;} .st4{fill:#A1A19A;} .st5{fill:#E64D3C;} .st6{fill:#FFFFFF;} .st7{fill:#EDF0F1;} .st8{fill:#3C97D3;} .st9{fill:#2A81BA;}</style><path d="M31.3 6.1h1.5V23h-1.5zM53.9 10.1h1.5v10h-1.5zM40.4 21.3H39v-10c0-.4.3-.7.7-.7h4.5V12h-3.7v9.3zM23.8 20.2h-1.5v-9.3h-3.7V9.5h4.5c.4 0 .7.3.7.7v10zM68.3 39.9h-1.5v-2.5h-7.9v-1.5h8.7c.4 0 .7.3.7.7v3.3zM14.6 40.4H7.4c-.4 0-.7-.3-.7-.7v-6.4h1.5v5.6h6.4v1.5z" class="st0"/><path d="M8.6 53.8h6.6v1.5H8.6z" class="st1"/><path d="M59.6 53.8h5.8v1.5h-5.8zM66.9 57.2c-1.4 0-2.6-1.2-2.6-2.6 0-1.4 1.2-2.6 2.6-2.6 1.4 0 2.6 1.2 2.6 2.6 0 1.4-1.2 2.6-2.6 2.6zm0-3.8c-.6 0-1.1.5-1.1 1.1 0 .6.5 1.1 1.1 1.1.6 0 1.1-.5 1.1-1.1 0-.6-.5-1.1-1.1-1.1zM7.4 57.2c-1.4 0-2.6-1.2-2.6-2.6C4.8 53.2 6 52 7.4 52c1.4 0 2.6 1.2 2.6 2.6.1 1.4-1.1 2.6-2.6 2.6zm0-3.8c-.6 0-1.1.5-1.1 1.1 0 .6.5 1.1 1.1 1.1.6 0 1.1-.5 1.1-1.1.1-.6-.4-1.1-1.1-1.1zM7.4 34.7c-1.4 0-2.6-1.2-2.6-2.6 0-1.4 1.2-2.6 2.6-2.6 1.4 0 2.6 1.2 2.6 2.6.1 1.5-1.1 2.6-2.6 2.6zm0-3.7c-.6 0-1.1.5-1.1 1.1 0 .6.5 1.1 1.1 1.1.6 0 1.1-.5 1.1-1.1.1-.6-.4-1.1-1.1-1.1zM67.6 43.8c-1.4 0-2.6-1.2-2.6-2.6 0-1.4 1.2-2.6 2.6-2.6 1.4 0 2.6 1.2 2.6 2.6 0 1.4-1.2 2.6-2.6 2.6zm0-3.7c-.6 0-1.1.5-1.1 1.1 0 .6.5 1.1 1.1 1.1.6 0 1.1-.5 1.1-1.1 0-.6-.5-1.1-1.1-1.1zM54.6 10.7c-1.4 0-2.6-1.2-2.6-2.6s1.2-2.6 2.6-2.6c1.4 0 2.6 1.2 2.6 2.6s-1.1 2.6-2.6 2.6zm0-3.8c-.6 0-1.1.5-1.1 1.1s.5 1.1 1.1 1.1c.6 0 1.1-.5 1.1-1.1s-.4-1.1-1.1-1.1zM45.6 13.9c-1.4 0-2.6-1.2-2.6-2.6s1.2-2.6 2.6-2.6c1.4 0 2.6 1.2 2.6 2.6s-1.2 2.6-2.6 2.6zm0-3.7c-.6 0-1.1.5-1.1 1.1s.5 1.1 1.1 1.1c.6 0 1.1-.5 1.1-1.1s-.5-1.1-1.1-1.1zM27.6 67.9h-4.5v-1.5h3.7v-9.3h1.5v10c0 .5-.3.8-.7.8zM21.7 69.8c-1.4 0-2.6-1.2-2.6-2.6 0-1.4 1.2-2.6 2.6-2.6 1.4 0 2.6 1.2 2.6 2.6 0 1.4-1.2 2.6-2.6 2.6zm0-3.8c-.6 0-1.1.5-1.1 1.1 0 .6.5 1.1 1.1 1.1.6 0 1.1-.5 1.1-1.1 0-.6-.5-1.1-1.1-1.1zM17.3 12.7c-1.4 0-2.6-1.2-2.6-2.6s1.2-2.6 2.6-2.6c1.4 0 2.6 1.2 2.6 2.6s-1.1 2.6-2.6 2.6zm0-3.8c-.6 0-1.1.5-1.1 1.1s.5 1.1 1.1 1.1c.6 0 1.1-.5 1.1-1.1s-.4-1.1-1.1-1.1zM32 7.3c-1.4 0-2.6-1.2-2.6-2.6S30.6 2 32 2c1.4 0 2.6 1.2 2.6 2.6S33.5 7.3 32 7.3zm0-3.8c-.6 0-1.1.5-1.1 1.1s.5 1.1 1.1 1.1c.6 0 1.1-.5 1.1-1.1s-.4-1.1-1.1-1.1zM37.6 52h1.5v16.9h-1.5zM52.9 66.2h-4.5c-.4 0-.7-.3-.7-.7v-10h1.5v9.3h3.7v1.4zM54.3 68.1c-1.4 0-2.6-1.2-2.6-2.6 0-1.4 1.2-2.6 2.6-2.6 1.4 0 2.6 1.2 2.6 2.6 0 1.4-1.2 2.6-2.6 2.6zm0-3.8c-.6 0-1.1.5-1.1 1.1 0 .6.5 1.1 1.1 1.1.6 0 1.1-.5 1.1-1.1 0-.6-.5-1.1-1.1-1.1zM38.3 73c-1.4 0-2.6-1.2-2.6-2.6 0-1.4 1.2-2.6 2.6-2.6 1.4 0 2.6 1.2 2.6 2.6 0 1.4-1.1 2.6-2.6 2.6zm0-3.8c-.6 0-1.1.5-1.1 1.1 0 .6.5 1.1 1.1 1.1.6 0 1.1-.5 1.1-1.1.1-.6-.5-1.1-1.1-1.1z" class="st0"/><path d="M35.6 26.6h3.5v24.8h-3.5z" class="st2"/><path d="M62.2 57.9c0 1.7-1.4 3-3 3H15.6c-1.7 0-3-1.4-3-3v-6.6c0-1.7 1.4-3 3-3h43.6c1.7 0 3 1.4 3 3v6.6z" class="st3"/><path d="M12.6 54.6v3.3c0 1.7 1.4 3 3 3h43.6c1.7 0 3-1.4 3-3v-3.3H12.6z" class="st4"/><ellipse cx="18.3" cy="54.6" class="st5" rx="2.5" ry="2.5"/><path d="M18.3 51c2 0 3.6 1.6 3.6 3.6s-1.6 3.6-3.6 3.6-3.6-1.6-3.6-3.6c.1-2 1.7-3.6 3.6-3.6zm0 5.1c.8 0 1.5-.7 1.5-1.5s-.7-1.5-1.5-1.5-1.5.7-1.5 1.5.7 1.5 1.5 1.5z" class="st6"/><path d="M55.2 55.3h1.4c.6 0 1 .5 1 1.1 0 .6-.5 1.1-1 1.1h-1.4c-.6 0-1-.5-1-1.1-.1-.6.4-1.1 1-1.1z" class="st2"/><path d="M38.4 55.3h2.1c.6 0 1 .5 1 1.1 0 .6-.5 1.1-1 1.1h-2.1c-.6 0-1-.5-1-1.1 0-.6.4-1.1 1-1.1zm5.6 0h2.1c.6 0 1 .5 1 1.1 0 .6-.5 1.1-1 1.1H44c-.6 0-1-.5-1-1.1 0-.6.4-1.1 1-1.1zm5.6 0h2.1c.6 0 1 .5 1 1.1 0 .6-.5 1.1-1 1.1h-2.1c-.6 0-1-.5-1-1.1 0-.6.4-1.1 1-1.1z" class="st6"/><path d="M55.2 51.8h1.4c.6 0 1 .5 1 1.1 0 .6-.5 1.1-1 1.1h-1.4c-.6 0-1-.5-1-1.1-.1-.7.4-1.1 1-1.1z" class="st2"/><path d="M38.4 51.8h2.1c.6 0 1 .5 1 1.1 0 .6-.5 1.1-1 1.1h-2.1c-.6 0-1-.5-1-1.1 0-.7.4-1.1 1-1.1z" class="st7"/><path d="M44 51.8h2.1c.6 0 1 .5 1 1.1 0 .6-.5 1.1-1 1.1H44c-.6 0-1-.5-1-1.1 0-.7.4-1.1 1-1.1zM49.6 51.8h2.1c.6 0 1 .5 1 1.1 0 .6-.5 1.1-1 1.1h-2.1c-.6 0-1-.5-1-1.1 0-.7.4-1.1 1-1.1z" class="st6"/><ellipse cx="26" cy="54.6" class="st6" rx="1.2" ry="1.3"/><ellipse cx="30.2" cy="54.6" class="st6" rx="1.2" ry="1.3"/><path d="M62.2 41.7c0 1.7-1.4 3-3 3H15.6c-1.7 0-3-1.4-3-3v-6.6c0-1.7 1.4-3 3-3h43.6c1.7 0 3 1.4 3 3v6.6z" class="st8"/><path d="M12.6 38.4v3.3c0 1.7 1.4 3 3 3h43.6c1.7 0 3-1.4 3-3v-3.3H12.6z" class="st9"/><ellipse cx="18.3" cy="38.4" class="st5" rx="2.5" ry="2.5"/><path d="M18.3 34.8c2 0 3.6 1.6 3.6 3.6S20.3 42 18.3 42s-3.6-1.6-3.6-3.6c.1-2 1.7-3.6 3.6-3.6zm0 5.1c.8 0 1.5-.7 1.5-1.5s-.7-1.5-1.5-1.5-1.5.7-1.5 1.5.7 1.5 1.5 1.5zM55.2 39.1h1.4c.6 0 1 .5 1 1.1 0 .6-.5 1.1-1 1.1h-1.4c-.6 0-1-.5-1-1.1-.1-.7.4-1.1 1-1.1zM38.4 39.1h2.1c.6 0 1 .5 1 1.1 0 .6-.5 1.1-1 1.1h-2.1c-.6 0-1-.5-1-1.1 0-.7.4-1.1 1-1.1zm5.6 0h2.1c.6 0 1 .5 1 1.1 0 .6-.5 1.1-1 1.1H44c-.6 0-1-.5-1-1.1 0-.7.4-1.1 1-1.1zm5.6 0h2.1c.6 0 1 .5 1 1.1 0 .6-.5 1.1-1 1.1h-2.1c-.6 0-1-.5-1-1.1 0-.7.4-1.1 1-1.1zM55.2 35.6h1.4c.6 0 1 .5 1 1.1 0 .6-.5 1.1-1 1.1h-1.4c-.6 0-1-.5-1-1.1-.1-.7.4-1.1 1-1.1zM38.4 35.6h2.1c.6 0 1 .5 1 1.1 0 .6-.5 1.1-1 1.1h-2.1c-.6 0-1-.5-1-1.1 0-.7.4-1.1 1-1.1zm5.6 0h2.1c.6 0 1 .5 1 1.1 0 .6-.5 1.1-1 1.1H44c-.6 0-1-.5-1-1.1 0-.7.4-1.1 1-1.1zm5.6 0h2.1c.6 0 1 .5 1 1.1 0 .6-.5 1.1-1 1.1h-2.1c-.6 0-1-.5-1-1.1 0-.7.4-1.1 1-1.1z" class="st6"/><ellipse cx="26" cy="38.4" class="st6" rx="1.2" ry="1.3"/><ellipse cx="30.2" cy="38.4" class="st6" rx="1.2" ry="1.3"/><path d="M62.2 25.5c0 1.7-1.4 3-3 3H15.6c-1.7 0-3-1.4-3-3v-6.6c0-1.7 1.4-3 3-3h43.6c1.7 0 3 1.4 3 3v6.6z" class="st3"/><path d="M12.6 22.2v3.3c0 1.7 1.4 3 3 3h43.6c1.7 0 3-1.4 3-3v-3.3H12.6z" class="st4"/><ellipse cx="18.3" cy="22.2" class="st5" rx="2.5" ry="2.5"/><path d="M18.3 18.6c2 0 3.6 1.6 3.6 3.6s-1.6 3.6-3.6 3.6-3.6-1.6-3.6-3.6c.1-2 1.7-3.6 3.6-3.6zm0 5.1c.8 0 1.5-.7 1.5-1.5s-.7-1.5-1.5-1.5-1.5.7-1.5 1.5.7 1.5 1.5 1.5z" class="st6"/><path d="M55.2 22.9h1.4c.6 0 1 .5 1 1.1s-.5 1.1-1 1.1h-1.4c-.6 0-1-.5-1-1.1s.4-1.1 1-1.1z" class="st2"/><path d="M38.4 22.9h2.1c.6 0 1 .5 1 1.1s-.5 1.1-1 1.1h-2.1c-.6 0-1-.5-1-1.1s.4-1.1 1-1.1zm5.6 0h2.1c.6 0 1 .5 1 1.1s-.5 1.1-1 1.1H44c-.6 0-1-.5-1-1.1s.4-1.1 1-1.1zm5.6 0h2.1c.6 0 1 .5 1 1.1s-.5 1.1-1 1.1h-2.1c-.6 0-1-.5-1-1.1s.4-1.1 1-1.1zM55.2 19.4h1.4c.6 0 1 .5 1 1.1 0 .6-.5 1.1-1 1.1h-1.4c-.6 0-1-.5-1-1.1-.1-.7.4-1.1 1-1.1zM38.4 19.4h2.1c.6 0 1 .5 1 1.1 0 .6-.5 1.1-1 1.1h-2.1c-.6 0-1-.5-1-1.1 0-.7.4-1.1 1-1.1z" class="st6"/><path d="M44 19.4h2.1c.6 0 1 .5 1 1.1 0 .6-.5 1.1-1 1.1H44c-.6 0-1-.5-1-1.1 0-.7.4-1.1 1-1.1zM49.6 19.4h2.1c.6 0 1 .5 1 1.1 0 .6-.5 1.1-1 1.1h-2.1c-.6 0-1-.5-1-1.1 0-.7.4-1.1 1-1.1z" class="st2"/><ellipse cx="26" cy="22.2" class="st6" rx="1.2" ry="1.3"/><ellipse cx="30.2" cy="22.2" class="st6" rx="1.2" ry="1.3"/></svg>