<svg xmlns="http://www.w3.org/2000/svg" viewBox="0 0 75 75" enable-background="new 0 0 75 75"><style type="text/css">.st0{fill:#CECDC9;} .st1{fill:#B3B4AF;} .st2{fill:#3C97D3;} .st3{fill:#2A81BA;} .st4{fill:#2376A6;} .st5{fill:#B2B2B0;} .st6{fill:#9D9D9D;} .st7{fill:#E64D3C;} .st8{fill:#CD362E;}</style><path d="M49.4 69.3c-2.9 0-5.3-2.4-5.3-5.3v-4.8c0-2.2-2.5-3.3-7.5-3.3l-8.3-.2v-2l8.3.2c6.3 0 9.5 1.8 9.5 5.3V64c0 1.8 1.5 3.3 3.3 3.3 1.8 0 3.3-1.5 3.3-3.3V49.9h2V64c0 2.9-2.4 5.3-5.3 5.3z" class="st0"/><path d="M43.6 38.2v4.5c0 4 3.2 7.2 7.2 7.2h5.9c4 0 7.2-3.2 7.2-7.2v-4.5H43.6z" class="st1"/><path d="M38.1 32.8c0 4.7 3.9 8.6 8.6 8.6h14.2c4.7 0 8.6-3.9 8.6-8.6H38.1zM46.6 31.8c-1.1 0-2-.9-2-2V16.7c0-1.1.9-2 2-2s2 .9 2 2v13.1c0 1.1-.9 2-2 2zM60.7 31.8c-1.1 0-2-.9-2-2V16.7c0-1.1.9-2 2-2s2 .9 2 2v13.1c0 1.1-.9 2-2 2z" class="st0"/><path d="M34.5 59l1.3-4.2-3.3-2.4c0-1-.1-1.9-.3-2.8l2.8-3-2.1-3.9-4.1.6c-.7-.7-1.4-1.3-2.2-1.8l-.2-4.1-4.2-1.4-2.4 3.3c-1 0-1.9.1-2.8.3l-3-2.8-4 2.1.6 4.1c-.7.7-1.3 1.4-1.8 2.2l-4.1.2-1.3 4.2L6.8 52c0 1 .1 1.9.3 2.8l-2.8 3 2.1 3.9 4.1-.6c.7.7 1.4 1.3 2.2 1.8l.2 4.1 4.2 1.3 2.5-3.3c1 0 1.9-.1 2.8-.3l3 2.8 3.9-2.1-.6-4.1c.7-.7 1.3-1.4 1.8-2.2l4-.1zm-17.3 1.7c-4.6-1.4-7.2-6.2-5.8-10.8 1.4-4.6 6.2-7.2 10.8-5.8 4.6 1.4 7.2 6.2 5.8 10.8-1.4 4.6-6.2 7.2-10.8 5.8z" class="st2"/><path d="M34.5 59l1.3-4.2-3.3-2.4c0-1-.1-1.9-.3-2.8l2.8-3-2.1-3.9-4.1.6c-.7-.7-1.4-1.3-2.2-1.8l-.2-4.1-2-.6-2.2 7.2c4.6 1.4 7.2 6.2 5.8 10.8-1.4 4.6-6.2 7.2-10.8 5.8l-2.1 7.1 1.9.6 2.5-3.3c1 0 1.9-.1 2.8-.3l3 2.8 3.9-2.1-.6-4.1c.7-.7 1.3-1.4 1.8-2.2l4.1-.1z" class="st3"/><path d="M26.4 37.3l.2 4.1c-.5-.4-1.2-.7-1.8-1l.1-3.6 1.5.5zm6.1 21.8l2.1-.1 1.3-4.2-1.7-1.2s-.2.7-.2.7l-1.3 4.2c-.1 0-.2.6-.2.6zM19.4 65c-.7.1-1.4 0-2.1-.1l-2.2 2.9 1.9.6 2.4-3.4zm9.2-3.6c.7-.7 1.3-1.4 1.8-2.2l-2.2.1c-.4.7-.8 1.1-1.4 1.6l.6 3.8c0 .2-.1.5-.3.6l-2.7 1.3 1 .9 3.9-2.1-.7-4zm4.5-15.9c.1.2.1.5-.1.7L30.4 49c.1.8.3 1.4.3 2.2l1.8 1.1c0-1-.1-1.9-.3-2.8l2.8-3-2.1-3.9-1.4.2 1.6 2.7z" class="st4"/><path d="M30.9 26.2v-3.5l-3.1-1.1c-.2-.7-.5-1.4-.9-2.1l1.4-2.9-2.4-2.4-2.9 1.4c-.7-.4-1.4-.7-2.1-.9l-1.1-3.1h-3.5l-1.1 3.1c-.7.2-1.4.5-2.1.9l-2.9-1.4-2.4 2.4 1.4 2.9c-.4.7-.7 1.4-.9 2.1l-3.1 1.1v3.5l3.1 1.1c.2.7.5 1.4.9 2.1l-1.4 2.9 2.4 2.4 2.9-1.4c.7.4 1.4.7 2.1.9l1.1 3.1h3.4l1.1-3.1c.7-.2 1.4-.5 2.1-.9l2.9 1.4 2.4-2.4-1.2-2.9c.4-.7.7-1.4.9-2.1l3-1.1zm-12.7 5.3c-3.8 0-6.9-3.1-6.9-6.9 0-3.8 3.1-6.9 6.9-6.9 3.8 0 6.9 3.1 6.9 6.9 0 3.8-3.1 6.9-6.9 6.9z" class="st0"/><path d="M30.9 26.2v-3.5l-3.1-1.1c-.2-.7-.5-1.4-.9-2.1l1.4-2.9-2.4-2.4-2.9 1.4c-.7-.4-1.4-.7-2.1-.9l-1.1-3.1h-1.6v6.1c3.8 0 6.9 3.1 6.9 6.9 0 3.8-3.1 6.9-6.9 6.9v5.8h1.6l1.1-3.1c.7-.2 1.4-.5 2.1-.9l2.9 1.4 2.4-2.4-1.3-2.9c.4-.7.7-1.4.9-2.1l3-1.1z" class="st5"/><path d="M19.8 11.7l1.1 3.1c-.5-.2-1.1-.3-1.6-.3l-.7-2.7 1.2-.1zm9.6 15.1l1.5-.5v-3.5l-1.5-.5s0 .6 0 .6v3.5c0-.1 0 .4 0 .4zm-8.5 7.5c-.5.2-1 .3-1.6.4l-1 2.7h1.5l1.1-3.1zm6.1-4.9c.4-.7.7-1.4.9-2.1l-1.7.6c-.2.6-.4 1-.7 1.6l1.3 2.7c.1.2 0 .4-.1.5L25 34.3l1 .5 2.4-2.4-1.4-3zm-.3-13c.1.1.2.3.1.5l-1.3 2.7c.3.6.5 1 .7 1.6l1.6.4c-.2-.7-.5-1.4-.9-2.1l1.4-2.9-2.3-2.3-1 .5 1.7 1.6z" class="st6"/><path d="M69 34.3H38.3c-1.4 0-2.6-1.2-2.6-2.6 0-1.4 1.2-2.6 2.6-2.6H69c1.4 0 2.6 1.2 2.6 2.6 0 1.4-1.2 2.6-2.6 2.6z" class="st7"/><path d="M38.3 34.3H69c1.4 0 2.6-1.2 2.6-2.6H35.7c0 1.4 1.2 2.6 2.6 2.6z" class="st8"/></svg>