<svg xmlns="http://www.w3.org/2000/svg" viewBox="0 0 75 75" enable-background="new 0 0 75 75"><style type="text/css">.st0{fill:#717168;} .st1{fill:#3C97D3;} .st2{fill:#2A81BA;} .st3{fill:#B0B1AA;} .st4{fill:#A1A19A;} .st5{fill:#E64D3C;} .st6{fill:#FFFFFF;}</style><path d="M35.3 38.6h4.4v19.6h-4.4z" class="st0"/><path d="M57.4 43.9c3.4 0 12.9-1.2 12.9-13.8 0-13.8-13.2-14.3-13.2-14.3S52.3 4.3 41.7 4.3c-10.6 0-13.8 7.9-13.8 7.9s-5.4-2-9.9 1.6c-5.9 4.7-4.7 9.2-4.7 9.2s-8.7 1.6-8.7 10.8 8.1 10.1 8.1 10.1 41.3 0 44.7 0z" class="st1"/><path d="M57.2 15.8s-1.3-3.1-4-6L19 43.9c11.7 0 35.8 0 38.4 0 3.4 0 12.9-1.2 12.9-13.8.1-13.7-13.1-14.3-13.1-14.3z" class="st2"/><path d="M70.7 66.6c0 2.3-1.8 4.1-4 4.1H8.3c-2.2 0-4-1.8-4-4.1v-8.8c0-2.3 1.8-4.1 4-4.1h58.3c2.2 0 4 1.8 4 4.1v8.8z" class="st3"/><path d="M4.3 62.2v4.4c0 2.3 1.8 4.1 4 4.1h58.3c2.2 0 4-1.8 4-4.1v-4.4H4.3z" class="st4"/><ellipse cx="12" cy="62.2" class="st5" rx="3.4" ry="3.4"/><path d="M12 57.4c2.6 0 4.8 2.2 4.8 4.8 0 2.7-2.1 4.8-4.8 4.8-2.6 0-4.8-2.2-4.8-4.8 0-2.7 2.2-4.8 4.8-4.8zm0 6.8c1.1 0 2-.9 2-2s-.9-2-2-2-2 .9-2 2 .9 2 2 2z" class="st6"/><path d="M61.4 63.1h1.9c.8 0 1.4.6 1.4 1.4 0 .8-.6 1.4-1.4 1.4h-1.9c-.8 0-1.4-.6-1.4-1.4 0-.7.6-1.4 1.4-1.4z" class="st0"/><path d="M38.9 63.1h2.8c.8 0 1.4.6 1.4 1.4 0 .8-.6 1.4-1.4 1.4h-2.8c-.8 0-1.4-.6-1.4-1.4 0-.7.6-1.4 1.4-1.4zm7.5 0h2.8c.8 0 1.4.6 1.4 1.4 0 .8-.6 1.4-1.4 1.4h-2.8c-.8 0-1.4-.6-1.4-1.4 0-.7.6-1.4 1.4-1.4zm7.5 0h2.8c.8 0 1.4.6 1.4 1.4 0 .8-.6 1.4-1.4 1.4h-2.8c-.8 0-1.4-.6-1.4-1.4 0-.7.6-1.4 1.4-1.4z" class="st6"/><path d="M61.4 58.4h1.9c.8 0 1.4.6 1.4 1.4 0 .8-.6 1.4-1.4 1.4h-1.9c-.8 0-1.4-.6-1.4-1.4 0-.8.6-1.4 1.4-1.4z" class="st0"/><path d="M38.9 58.4h2.8c.8 0 1.4.6 1.4 1.4 0 .8-.6 1.4-1.4 1.4h-2.8c-.8 0-1.4-.6-1.4-1.4 0-.8.6-1.4 1.4-1.4zm7.5 0h2.8c.8 0 1.4.6 1.4 1.4 0 .8-.6 1.4-1.4 1.4h-2.8c-.8 0-1.4-.6-1.4-1.4 0-.8.6-1.4 1.4-1.4zm7.5 0h2.8c.8 0 1.4.6 1.4 1.4 0 .8-.6 1.4-1.4 1.4h-2.8c-.8 0-1.4-.6-1.4-1.4 0-.8.6-1.4 1.4-1.4z" class="st6"/><path d="M56.7 33.1H59c.9 0 1.7.8 1.7 1.7s-.8 1.7-1.7 1.7h-2.3c-.9 0-1.7-.8-1.7-1.7s.8-1.7 1.7-1.7zM29.6 33.1H33c.9 0 1.7.8 1.7 1.7s-.8 1.7-1.7 1.7h-3.4c-.9 0-1.7-.8-1.7-1.7s.8-1.7 1.7-1.7zm9 0H42c.9 0 1.7.8 1.7 1.7s-.7 1.7-1.7 1.7h-3.4c-.9 0-1.7-.8-1.7-1.7s.8-1.7 1.7-1.7zm9.1 0h3.4c.9 0 1.7.8 1.7 1.7s-.8 1.7-1.7 1.7h-3.4c-.9 0-1.7-.8-1.7-1.7s.7-1.7 1.7-1.7z" class="st1"/><path d="M56.7 27.4H59c.9 0 1.7.8 1.7 1.7s-.8 1.7-1.7 1.7h-2.3c-.9 0-1.7-.8-1.7-1.7s.8-1.7 1.7-1.7zM29.6 27.4H33c.9 0 1.7.8 1.7 1.7s-.8 1.7-1.7 1.7h-3.4c-.9 0-1.7-.8-1.7-1.7s.8-1.7 1.7-1.7zm9 0H42c.9 0 1.7.8 1.7 1.7s-.7 1.7-1.7 1.7h-3.4c-.9 0-1.7-.8-1.7-1.7s.8-1.7 1.7-1.7zm9.1 0h3.4c.9 0 1.7.8 1.7 1.7s-.8 1.7-1.7 1.7h-3.4c-.9 0-1.7-.8-1.7-1.7s.7-1.7 1.7-1.7z" class="st6"/><ellipse cx="22.3" cy="62.2" class="st6" rx="1.7" ry="1.7"/><ellipse cx="27.9" cy="62.2" class="st6" rx="1.7" ry="1.7"/></svg>