<svg xmlns="http://www.w3.org/2000/svg" viewBox="0 0 75 75" enable-background="new 0 0 75 75"><style type="text/css">.st0{fill:#E64D3C;} .st1{fill:#FFFFFF;} .st2{fill:#EBEBE9;} .st3{fill:#A5A39D;} .st4{fill:#D9D8D6;} .st5{fill:#CECDC9;} .st6{fill:#A1A19A;} .st7{fill:#BCBBB8;} .st8{opacity:0.3;fill:#F3F4F2;} .st9{fill:#717168;} .st10{fill:#84847E;} .st11{fill:#C6C6C1;} .st12{fill:#3C97D3;}</style><path d="M65.8 14.5H52.4c-1.8 0-3.2 1.5-3.2 3.2V29l-4.3 5.2 4.3.1v1.2c0 1.8 1.5 3.2 3.2 3.2h13.4c1.8 0 3.2-1.5 3.2-3.2V17.7c0-1.8-1.4-3.2-3.2-3.2z" class="st0"/><path d="M63.8 22.5H55c-.6 0-1.1-.5-1.1-1.1s.5-1.1 1.1-1.1h8.8c.6 0 1.1.5 1.1 1.1s-.5 1.1-1.1 1.1zM63.8 27.4H55c-.6 0-1.1-.5-1.1-1.1s.5-1.1 1.1-1.1h8.8c.6 0 1.1.5 1.1 1.1s-.5 1.1-1.1 1.1zM63.8 32.4H55c-.6 0-1.1-.5-1.1-1.1s.5-1.1 1.1-1.1h8.8c.6 0 1.1.5 1.1 1.1s-.5 1.1-1.1 1.1z" class="st1"/><path d="M32.4 37.6H26c-7.5.5-12.7 5.7-12.7 13.5 0 .5 0 6.6 0 6.6h31v-7.8c-.1-6.6-4.5-12.3-11.9-12.3z" class="st2"/><path d="M37.5 38.7c-1.5-.7-3.2-1.1-5.2-1.1h-6.4c-2.1.1-4 .7-5.7 1.5.7 1.9 2.9 6.1 8.5 6.2.1 0 .2 0 .2 0 6.7 0 8.3-5.4 8.6-6.6z" class="st3"/><path d="M21.1 57.6c.1-.4-.1-.8-.5-.9 0 0-1.7-.5-1.9-3.6-.1-2.2 1.1-4.9 1.1-4.9.2-.4 0-.8-.3-1-.4-.2-.8 0-1 .4-.1.1-1.4 3-1.2 5.6.1 2.8 1.3 4.1 2.2 4.6h1.6c0-.1 0-.2 0-.2zM40.2 53.1c.1-2.6-1.2-5.6-1.2-5.7-.2-.4-.6-.5-1-.4-.4.2-.5.6-.3 1 0 0 1.2 2.7 1.1 4.9-.2 3.1-1.8 3.6-1.9 3.7-.4.1-.6.5-.5.9 0 0 0 .1 0 .1h1.7c.8-.4 2-1.7 2.1-4.5z" class="st4"/><path d="M36.3 38.2c-1.2-.4-2.5-.6-4-.6h-6.4c-1.6.1-3.2.4-4.6 1 .6 1.7 2.5 5.3 7.4 5.4 6.5.2 7.6-5.5 7.6-5.8zM24.9 28.3h7.7v10.8h-7.7z" class="st5"/><path d="M21.2 30.9s-4.5 1-7.4-2.1c4.1-1.4 4-9.4 4-10.8-.2-6.5 3.9-9.5 9.8-9.6 3.9-.1 7.3 1.9 9.2 5-4 4.9-7.9 2-15.2 3.1-1.1.1-2.5 8.9-.4 14.4z" class="st6"/><path d="M37.5 26.9c0 5.1-3.8 9.3-8.3 9.2h-1c-4.6 0-8.2-4.2-8.2-9.4l.1-8.2c0-5.1 3.8-9.3 8.3-9.2h1c4.6 0 8.2 4.2 8.2 9.4l-.1 8.2z" class="st2"/><path d="M36.1 31.9s4.9.6 8.2-4c-3-.1-5-5.4-4.9-11 .1-5.3-4.9-9.6-11.9-9.3-3.9.2-7.7 2.8-9.5 7 4.2 5.8 7.8 8.2 16.6 8.4 1.2-.1 4.4 2.7 1.5 8.9z" class="st7"/><path d="M30.1 20.8c-.1 0-.1 0-.2 0-2.7-.7-4.7-1.7-6.1-2.9-.3-.3-.3-.7-.1-1 .3-.3.7-.3 1-.1 1.2 1.1 3 2 5.5 2.6.4.1.6.5.5.9 0 .3-.3.5-.6.5zM33.4 21.4c-.5 0-.6 0-1-.1s-.7-.4-.6-.8c.1-.4.5-.7.8-.6.4.1.4.1.9.1.4 0 .7.4.7.8-.1.3-.4.6-.8.6z" class="st8"/><path d="M29.5 31.8c0 .9-.7 1.6-1.6 1.6h-.5c-.9 0-1.6-.7-1.6-1.6 0-.9.7-1.6 1.6-1.6h.5c.9 0 1.6.7 1.6 1.6zM16.3 25.5c-1.2-2.1-1.9-4.6-1.9-7 0-7.9 6.4-14.3 14.3-14.3S43 10.6 43 18.5c0 2.5-.6 4.9-1.9 7l-1.3-.7c1.1-1.9 1.7-4.1 1.7-6.3 0-7-5.8-12.8-12.9-12.8-7.1 0-12.9 5.7-12.9 12.8 0 2.2.6 4.4 1.7 6.3l-1.1.7z" class="st9"/><path d="M19.7 26.6c-.1-1.4-.5-2.9-.5-4.3-.3-.1-.6-.2-.9-.2-1.5 0-2.8 1.3-2.8 2.8s1.3 2.8 2.8 2.8c.5 0 1-.1 1.4-.4 0-.2 0-.5 0-.7zM37.7 27.1c.1-1.4.5-2.9.5-4.3.3-.1.6-.2.9-.2 1.5 0 2.8 1.3 2.8 2.8s-1.3 2.8-2.8 2.8c-.5 0-1-.1-1.4-.4-.1-.2 0-.4 0-.7z" class="st10"/><path d="M39.6 22.4c0-.7-.6-1.2-1.2-1.2h-.3c-.7 0-1.2.6-1.2 1.2v6.3c0 .7.6 1.2 1.2 1.2h.3c.7 0 1.2-.6 1.2-1.2v-6.3zM25.9 32.7c-4.8-.4-6.3-2.8-6.4-3-.2-.3-.1-.8.2-1 .3-.2.8-.1 1 .2.1.1 1.3 1.9 5.2 2.3.4 0 .7.4.7.8s-.3.7-.7.7zM20.5 28.1c0 .7-.6 1.2-1.2 1.2H19c-.7 0-1.2-.6-1.2-1.2v-6.3c0-.7.6-1.2 1.2-1.2h.3c.7 0 1.2.6 1.2 1.2v6.3z" class="st9"/><path d="M6 66.2v1.2c0 1.8 1.5 3.4 3.6 3.4h44c2.1 0 3.8-1.6 3.8-3.4v-1.2H6z" class="st11"/><path d="M53.7 67.6c0 .9-1.5 1.6-2.4 1.6H12c-.9 0-2.2-.7-2.2-1.6V42.8c0-.9.7-1.6 1.6-1.6h40.7c.9 0 1.6.7 1.6 1.6v24.8z" class="st2"/><circle cx="31.7" cy="55.2" r="2.2" class="st12"/></svg>