<svg xmlns="http://www.w3.org/2000/svg" viewBox="0 0 75 75" enable-background="new 0 0 75 75"><style type="text/css">.st0{fill:#EBEBE9;} .st1{fill:#B0B1AA;} .st2{fill:#E64D3C;} .st3{fill:#3C97D3;} .st4{opacity:0.12;fill:#21160C;} .st5{fill:#FFFFFF;} .st6{fill:#CECDC9;} .st7{fill:#585852;}</style><path d="M66.8 66.4H8.2c-1.6 0-2.9-1.3-2.9-2.9V7.9C5.3 6.3 6.6 5 8.2 5h58.5c1.6 0 2.9 1.3 2.9 2.9v55.7c0 1.6-1.3 2.8-2.8 2.8z" class="st0"/><path d="M47.1 51.7H20.5c-.5 0-.8-.4-.8-.8v-.2c0-.5.4-.8.8-.8h26.6c.5 0 .8.4.8.8v.2c0 .5-.4.8-.8.8zM47.1 55.8H20.5c-.5 0-.8-.4-.8-.8v-.2c0-.5.4-.8.8-.8h26.6c.5 0 .8.4.8.8v.2c0 .5-.4.8-.8.8zM47.1 60H20.5c-.5 0-.8-.4-.8-.8V59c0-.5.4-.8.8-.8h26.6c.5 0 .8.4.8.8v.2c0 .4-.4.8-.8.8z" class="st1"/><path d="M19.6 19.5h35.8V29H19.6z" class="st2"/><path d="M19.6 35.3h35.8v9.5H19.6z" class="st3"/><path d="M60.6 54.6c0-17.9 1.7-15.9-8.9-15.9-1.6 0-3.3.3-4.3-.7-.1-.1-.2-.2-.3-.3V27.4c0-1.3-.4-2.8-2.2-2.8-1.9 0-2.4 1.5-2.4 2.8 0 0 .1 8.9.1 16.2-.8.3-.7.3-1.5.7-1.4.8-2.3 2.2-2.3 3.8 1.3 6.7 1.6 9.1 3.4 9.7.5.4 1.1.6 1.9.7 1 .8.8 1.3.8 2.8v3.8h-1v1.2h16.8v-1.2h-1v-3.8h-.1v-5.2l1-1.5z" class="st4"/><path d="M66.8 5.1H8.2C6.6 5.1 5.3 6.4 5.3 8v4.4h64.2V7.9c.1-1.6-1.2-2.8-2.7-2.8z" class="st1"/><path d="M60.1 36.5h-8.9s-1.3-.2-1.8-1.1V25.1c0-1.3-.4-2.8-2.2-2.8-1.9 0-2.4 1.5-2.4 2.8 0 0 .1 8.9.1 16.2-2.1.7-3.8 2.3-3.8 4.5l1 5.2c.1.4.2.9.4 1.2.1.5.3 1 .4 1.4.4 1.3 1 1.7 1.7 1.9.5.4 1.1.6 1.9.7.7.5.8 1.1.8 1.1v7.4h14.8V54l1-1.6V39.3c-.3-2-2-2.8-3-2.8z" class="st5"/><path d="M47 59.1h14.9v5.8H47z" class="st6"/><path d="M46.1 63h16.8v7H46.1z" class="st1"/><circle cx="59.7" cy="66.7" r="1.3" class="st7"/><path d="M54.6 39.1c.4 0 .7-.3.7-.7v-1.9h-1.4v1.9c0 .4.4.7.7.7zM59 39.1c.4 0 .7-.3.7-.7v-1.9h-1.4v1.9c0 .4.3.7.7.7zM44.8 39.9zM44.8 48.9v-7.6c-.5.2-1 .4-1.5.7v6.9c0 .4.3.8.8.8.3 0 .7-.4.7-.8zM50.1 39.1c.4 0 .7-.3.7-.7v-2c-.4-.1-1.1-.4-1.4-1v3c0 .4.3.7.7.7z" class="st6"/><circle cx="11.3" cy="8.7" r="1.6" class="st5"/><circle cx="16.4" cy="8.7" r="1.6" class="st5"/><circle cx="21.6" cy="8.7" r="1.6" class="st5"/><path d="M24.4 23.1h2.4c.6 0 1.2.5 1.2 1.2s-.5 1.2-1.2 1.2h-2.4c-.6 0-1.2-.5-1.2-1.2s.5-1.2 1.2-1.2zm6.3 0H33c.6 0 1.2.5 1.2 1.2s-.5 1.2-1.2 1.2h-2.4c-.6 0-1.2-.5-1.2-1.2.1-.7.6-1.2 1.3-1.2zm6.2 0h2.4c.7 0 1.2.5 1.2 1.2s-.5 1.2-1.2 1.2h-2.4c-.6 0-1.2-.5-1.2-1.2.1-.7.6-1.2 1.2-1.2z" class="st5"/></svg>